<?xml version="1.0" encoding="UTF-8" standalone="no"?>
<!DOCTYPE svg PUBLIC "-//W3C//DTD SVG 1.1//EN"
    "http://www.w3.org/Graphics/SVG/1.1/DTD/svg11.dtd">
<!-- Generated by graphviz version 2.43.0 (0)
 -->
<!-- Title: G Pages: 1 -->
<svg width="790pt" height="395pt"
     viewBox="14.40 14.40 775.40 380.40" xmlns="http://www.w3.org/2000/svg">
    <g id="graph0" class="graph" transform="scale(1 1) rotate(0) translate(18.4 376.4)">
        <title>G</title>
        <polygon fill="white" stroke="transparent" points="-4,4 -4,-362 757,-362 757,4 -4,4"/>
        <text text-anchor="middle" x="139" y="-341.2" font-family="Times,serif" font-size="16.00">&#160;&#160;&#160;&#160;&#160;Typical
            Structure of a Python Library
        </text>
        <g id="clust1" class="cluster">
            <title>cluster_package1</title>
            <polygon fill="none" stroke="black" points="8,-8 8,-286 411,-286 411,-8 8,-8"/>
            <text text-anchor="middle" x="46.5" y="-269.2" font-family="Times,serif" font-size="16.00">Package1</text>
        </g>
        <g id="clust2" class="cluster">
            <title>cluster_package2</title>
            <polygon fill="none" stroke="black" points="429,-8 429,-286 745,-286 745,-8 429,-8"/>
            <text text-anchor="middle" x="706.5" y="-269.2" font-family="Times,serif" font-size="16.00">Package2</text>
        </g>
        <!-- Library -->
        <g id="node1" class="node">
            <title>Library</title>
            <polygon fill="lightblue" stroke="black"
                     points="444,-332 441,-336 420,-336 417,-332 390,-332 390,-296 444,-296 444,-332"/>
            <text text-anchor="middle" x="417" y="-310.9" font-family="Arial" font-size="12.00">Library</text>
        </g>
        <!-- Package1 -->
        <g id="node2" class="node">
            <title>Package1</title>
            <polygon fill="lightgreen" stroke="black"
                     points="400.5,-260 397.5,-264 376.5,-264 373.5,-260 329.5,-260 329.5,-224 400.5,-224 400.5,-260"/>
            <text text-anchor="middle" x="365" y="-238.9" font-family="Arial" font-size="12.00">Package1</text>
        </g>
        <!-- Library&#45;&gt;Package1 -->
        <g id="edge16" class="edge">
            <title>Library&#45;&gt;Package1</title>
            <path fill="none" stroke="black" d="M404.15,-295.7C397.97,-287.39 390.46,-277.28 383.68,-268.14"/>
            <polygon fill="black" stroke="black" points="386.48,-266.04 377.71,-260.1 380.86,-270.22 386.48,-266.04"/>
        </g>
        <!-- Package2 -->
        <g id="node13" class="node">
            <title>Package2</title>
            <polygon fill="lightgreen" stroke="black"
                     points="505.5,-260 502.5,-264 481.5,-264 478.5,-260 434.5,-260 434.5,-224 505.5,-224 505.5,-260"/>
            <text text-anchor="middle" x="470" y="-238.9" font-family="Arial" font-size="12.00">Package2</text>
        </g>
        <!-- Library&#45;&gt;Package2 -->
        <g id="edge17" class="edge">
            <title>Library&#45;&gt;Package2</title>
            <path fill="none" stroke="black" d="M430.1,-295.7C436.39,-287.39 444.05,-277.28 450.96,-268.14"/>
            <polygon fill="black" stroke="black" points="453.8,-270.19 457.05,-260.1 448.22,-265.96 453.8,-270.19"/>
        </g>
        <!-- Module1_1 -->
        <g id="node3" class="node">
            <title>Module1_1</title>
            <polygon fill="lightyellow" stroke="black" points="247,-188 155,-188 155,-152 247,-152 247,-188"/>
            <text text-anchor="middle" x="201" y="-166.9" font-family="Arial" font-size="12.00">module1_1.py</text>
        </g>
        <!-- Package1&#45;&gt;Module1_1 -->
        <g id="edge1" class="edge">
            <title>Package1&#45;&gt;Module1_1</title>
            <path fill="none" stroke="black" d="M329.41,-225.81C306.28,-215.93 275.78,-202.92 250.32,-192.05"/>
            <polygon fill="black" stroke="black" points="251.4,-188.71 240.83,-188 248.66,-195.15 251.4,-188.71"/>
        </g>
        <!-- Module1_2 -->
        <g id="node4" class="node">
            <title>Module1_2</title>
            <polygon fill="lightyellow" stroke="black" points="411,-188 319,-188 319,-152 411,-152 411,-188"/>
            <text text-anchor="middle" x="365" y="-166.9" font-family="Arial" font-size="12.00">module1_2.py</text>
        </g>
        <!-- Package1&#45;&gt;Module1_2 -->
        <g id="edge2" class="edge">
            <title>Package1&#45;&gt;Module1_2</title>
            <path fill="none" stroke="black" d="M365,-223.7C365,-215.98 365,-206.71 365,-198.11"/>
            <polygon fill="black" stroke="black" points="368.5,-198.1 365,-188.1 361.5,-198.1 368.5,-198.1"/>
        </g>
        <!-- ClassA -->
        <g id="node5" class="node">
            <title>ClassA</title>
            <ellipse fill="lightcoral" stroke="black" cx="42" cy="-98" rx="34.45" ry="18"/>
            <text text-anchor="middle" x="42" y="-94.9" font-family="Arial" font-size="12.00">ClassA</text>
        </g>
        <!-- Module1_1&#45;&gt;ClassA -->
        <g id="edge3" class="edge">
            <title>Module1_1&#45;&gt;ClassA</title>
            <path fill="none" stroke="black" d="M162.1,-151.88C136.02,-140.39 101.96,-125.4 76.77,-114.31"/>
            <polygon fill="black" stroke="black" points="78.15,-111.09 67.59,-110.27 75.33,-117.5 78.15,-111.09"/>
        </g>
        <!-- function1_1 -->
        <g id="node11" class="node">
            <title>function1_1</title>
            <ellipse fill="lightgrey" stroke="black" cx="147" cy="-98" rx="52.88" ry="18"/>
            <text text-anchor="middle" x="147" y="-94.9" font-family="Arial" font-size="12.00">function1_1()</text>
        </g>
        <!-- Module1_1&#45;&gt;function1_1 -->
        <g id="edge4" class="edge">
            <title>Module1_1&#45;&gt;function1_1</title>
            <path fill="none" stroke="black" d="M187.65,-151.7C181.15,-143.27 173.21,-132.97 166.08,-123.73"/>
            <polygon fill="black" stroke="black" points="168.7,-121.4 159.82,-115.62 163.16,-125.68 168.7,-121.4"/>
        </g>
        <!-- function1_2 -->
        <g id="node12" class="node">
            <title>function1_2</title>
            <ellipse fill="lightgrey" stroke="black" cx="271" cy="-98" rx="52.88" ry="18"/>
            <text text-anchor="middle" x="271" y="-94.9" font-family="Arial" font-size="12.00">function1_2()</text>
        </g>
        <!-- Module1_1&#45;&gt;function1_2 -->
        <g id="edge5" class="edge">
            <title>Module1_1&#45;&gt;function1_2</title>
            <path fill="none" stroke="black" d="M218.3,-151.7C227.12,-142.88 237.97,-132.03 247.53,-122.47"/>
            <polygon fill="black" stroke="black" points="250.26,-124.69 254.86,-115.14 245.31,-119.74 250.26,-124.69"/>
        </g>
        <!-- ClassC -->
        <g id="node8" class="node">
            <title>ClassC</title>
            <ellipse fill="lightcoral" stroke="black" cx="376" cy="-98" rx="34.45" ry="18"/>
            <text text-anchor="middle" x="376" y="-94.9" font-family="Arial" font-size="12.00">ClassC</text>
        </g>
        <!-- Module1_2&#45;&gt;ClassC -->
        <g id="edge8" class="edge">
            <title>Module1_2&#45;&gt;ClassC</title>
            <path fill="none" stroke="black" d="M367.72,-151.7C368.93,-143.98 370.39,-134.71 371.74,-126.11"/>
            <polygon fill="black" stroke="black" points="375.22,-126.53 373.31,-116.1 368.3,-125.44 375.22,-126.53"/>
        </g>
        <!-- ClassA_method1 -->
        <g id="node6" class="node">
            <title>ClassA_method1</title>
            <ellipse fill="lightpink" stroke="black" cx="52" cy="-26" rx="43.91" ry="18"/>
            <text text-anchor="middle" x="52" y="-22.9" font-family="Arial" font-size="12.00">method1()</text>
        </g>
        <!-- ClassA&#45;&gt;ClassA_method1 -->
        <g id="edge6" class="edge">
            <title>ClassA&#45;&gt;ClassA_method1</title>
            <path fill="none" stroke="black" d="M44.47,-79.7C45.57,-71.98 46.9,-62.71 48.13,-54.11"/>
            <polygon fill="black" stroke="black" points="51.61,-54.5 49.56,-44.1 44.68,-53.51 51.61,-54.5"/>
        </g>
        <!-- ClassA_method2 -->
        <g id="node7" class="node">
            <title>ClassA_method2</title>
            <ellipse fill="lightpink" stroke="black" cx="157" cy="-26" rx="43.91" ry="18"/>
            <text text-anchor="middle" x="157" y="-22.9" font-family="Arial" font-size="12.00">method2()</text>
        </g>
        <!-- ClassA&#45;&gt;ClassA_method2 -->
        <g id="edge7" class="edge">
            <title>ClassA&#45;&gt;ClassA_method2</title>
            <path fill="none" stroke="black" d="M63.63,-83.83C80.9,-73.32 105.35,-58.44 124.89,-46.54"/>
            <polygon fill="black" stroke="black" points="126.77,-49.5 133.49,-41.31 123.13,-43.52 126.77,-49.5"/>
        </g>
        <!-- ClassC_method1 -->
        <g id="node9" class="node">
            <title>ClassC_method1</title>
            <ellipse fill="lightpink" stroke="black" cx="262" cy="-26" rx="43.91" ry="18"/>
            <text text-anchor="middle" x="262" y="-22.9" font-family="Arial" font-size="12.00">method1()</text>
        </g>
        <!-- ClassC&#45;&gt;ClassC_method1 -->
        <g id="edge9" class="edge">
            <title>ClassC&#45;&gt;ClassC_method1</title>
            <path fill="none" stroke="black" d="M354.56,-83.83C337.52,-73.37 313.42,-58.58 294.09,-46.7"/>
            <polygon fill="black" stroke="black" points="295.66,-43.56 285.31,-41.31 292,-49.53 295.66,-43.56"/>
        </g>
        <!-- ClassC_method2 -->
        <g id="node10" class="node">
            <title>ClassC_method2</title>
            <ellipse fill="lightpink" stroke="black" cx="367" cy="-26" rx="43.91" ry="18"/>
            <text text-anchor="middle" x="367" y="-22.9" font-family="Arial" font-size="12.00">method2()</text>
        </g>
        <!-- ClassC&#45;&gt;ClassC_method2 -->
        <g id="edge10" class="edge">
            <title>ClassC&#45;&gt;ClassC_method2</title>
            <path fill="none" stroke="black" d="M373.78,-79.7C372.78,-71.98 371.59,-62.71 370.49,-54.11"/>
            <polygon fill="black" stroke="black" points="373.95,-53.58 369.2,-44.1 367,-54.47 373.95,-53.58"/>
        </g>
        <!-- Module2_1 -->
        <g id="node14" class="node">
            <title>Module2_1</title>
            <polygon fill="lightyellow" stroke="black" points="567,-188 475,-188 475,-152 567,-152 567,-188"/>
            <text text-anchor="middle" x="521" y="-166.9" font-family="Arial" font-size="12.00">module2_1.py</text>
        </g>
        <!-- Package2&#45;&gt;Module2_1 -->
        <g id="edge11" class="edge">
            <title>Package2&#45;&gt;Module2_1</title>
            <path fill="none" stroke="black" d="M482.61,-223.7C488.6,-215.47 495.88,-205.48 502.48,-196.42"/>
            <polygon fill="black" stroke="black" points="505.48,-198.25 508.54,-188.1 499.82,-194.13 505.48,-198.25"/>
        </g>
        <!-- ClassB -->
        <g id="node15" class="node">
            <title>ClassB</title>
            <ellipse fill="lightcoral" stroke="black" cx="463" cy="-98" rx="34.45" ry="18"/>
            <text text-anchor="middle" x="463" y="-94.9" font-family="Arial" font-size="12.00">ClassB</text>
        </g>
        <!-- Module2_1&#45;&gt;ClassB -->
        <g id="edge12" class="edge">
            <title>Module2_1&#45;&gt;ClassB</title>
            <path fill="none" stroke="black" d="M506.66,-151.7C499.5,-143.05 490.72,-132.46 482.92,-123.04"/>
            <polygon fill="black" stroke="black" points="485.45,-120.61 476.38,-115.14 480.06,-125.08 485.45,-120.61"/>
        </g>
        <!-- function2_1 -->
        <g id="node17" class="node">
            <title>function2_1</title>
            <ellipse fill="lightgrey" stroke="black" cx="568" cy="-98" rx="52.88" ry="18"/>
            <text text-anchor="middle" x="568" y="-94.9" font-family="Arial" font-size="12.00">function2_1()</text>
        </g>
        <!-- Module2_1&#45;&gt;function2_1 -->
        <g id="edge13" class="edge">
            <title>Module2_1&#45;&gt;function2_1</title>
            <path fill="none" stroke="black" d="M532.62,-151.7C538.22,-143.35 545.05,-133.18 551.2,-124.02"/>
            <polygon fill="black" stroke="black" points="554.17,-125.88 556.84,-115.62 548.36,-121.97 554.17,-125.88"/>
        </g>
        <!-- function2_2 -->
        <g id="node18" class="node">
            <title>function2_2</title>
            <ellipse fill="lightgrey" stroke="black" cx="692" cy="-98" rx="52.88" ry="18"/>
            <text text-anchor="middle" x="692" y="-94.9" font-family="Arial" font-size="12.00">function2_2()</text>
        </g>
        <!-- Module2_1&#45;&gt;function2_2 -->
        <g id="edge14" class="edge">
            <title>Module2_1&#45;&gt;function2_2</title>
            <path fill="none" stroke="black" d="M562.83,-151.88C589.34,-141.03 623.5,-127.04 650.03,-116.18"/>
            <polygon fill="black" stroke="black" points="651.5,-119.36 659.43,-112.33 648.85,-112.88 651.5,-119.36"/>
        </g>
        <!-- ClassB_method1 -->
        <g id="node16" class="node">
            <title>ClassB_method1</title>
            <ellipse fill="lightpink" stroke="black" cx="473" cy="-26" rx="43.91" ry="18"/>
            <text text-anchor="middle" x="473" y="-22.9" font-family="Arial" font-size="12.00">method1()</text>
        </g>
        <!-- ClassB&#45;&gt;ClassB_method1 -->
        <g id="edge15" class="edge">
            <title>ClassB&#45;&gt;ClassB_method1</title>
            <path fill="none" stroke="black" d="M465.47,-79.7C466.57,-71.98 467.9,-62.71 469.13,-54.11"/>
            <polygon fill="black" stroke="black" points="472.61,-54.5 470.56,-44.1 465.68,-53.51 472.61,-54.5"/>
        </g>
    </g>
</svg>
